<svg width="64" height="70" viewBox="0 0 64 70" fill="none" xmlns="http://www.w3.org/2000/svg">
<path d="M32.0001 0.625C29.5668 0.625 27.3166 1.79813 25.4327 3.65845C23.5488 5.51907 21.9575 8.08314 20.6292 11.1841C20.2259 12.1258 19.8586 13.1315 19.5062 14.1687C18.4257 13.9919 17.3589 13.8464 16.3385 13.7598C12.9785 13.4745 9.9662 13.6726 7.43955 14.4617C4.91292 15.2507 2.82773 16.6895 1.68393 18.8379C0.540137 20.986 0.507731 23.526 1.26279 26.0645C2.01789 28.6026 3.5343 31.2152 5.64511 33.8464C5.95361 34.231 6.30603 34.6151 6.63999 35C6.30491 35.3862 5.95455 35.7739 5.64511 36.1597C3.5343 38.7909 2.01785 41.3974 1.26279 43.9355C0.507704 46.474 0.534006 49.014 1.67783 51.1621C2.8216 53.3105 4.91289 54.7493 7.43955 55.5383C9.96617 56.3274 12.9785 56.5255 16.3385 56.2402C17.3585 56.1537 18.4198 56.0081 19.5001 55.8313C19.8527 56.8694 20.2257 57.8798 20.6292 58.822C21.9575 61.923 23.5489 64.4873 25.4327 66.3477C27.3166 68.208 29.5668 69.375 32.0001 69.375C34.4334 69.375 36.6836 68.208 38.5675 66.3477C40.4513 64.4873 42.0427 61.923 43.3709 58.822C43.7736 57.8819 44.1421 56.8729 44.494 55.8374C45.5763 56.0147 46.6398 56.1596 47.6617 56.2463C51.0216 56.5313 54.034 56.3271 56.5606 55.5383C59.0873 54.7493 61.1786 53.3105 62.3224 51.1621C63.4662 49.014 63.4925 46.4801 62.7374 43.9417C61.9823 41.4032 60.4659 38.7848 58.3551 36.1536C58.0464 35.7687 57.7006 35.3852 57.3663 35C57.7 34.6154 58.0468 34.2307 58.3551 33.8464C60.4659 31.2152 61.9823 28.5968 62.7374 26.0583C63.4925 23.5199 63.4662 20.986 62.3224 18.8379C61.1786 16.6895 59.0873 15.2507 56.5606 14.4617C54.034 13.6729 51.0216 13.4748 47.6617 13.7598C46.6416 13.8463 45.5803 13.9922 44.5001 14.1687C44.1475 13.1309 43.7745 12.1263 43.3709 11.1841C42.0427 8.08314 40.4513 5.51907 38.5675 3.65845C36.6836 1.79813 34.4334 0.625 32.0001 0.625ZM32.0001 3.75C33.4476 3.75 34.8913 4.4195 36.3702 5.88013C37.8491 7.34044 39.2873 9.58012 40.5023 12.417C40.8159 13.1491 41.0675 14.0205 41.3507 14.8279C38.3593 15.5185 35.219 16.5222 31.994 17.8247C28.7738 16.5239 25.6365 15.5184 22.6495 14.8279C22.9327 14.0205 23.1843 13.1491 23.4979 12.417C24.7129 9.58012 26.1511 7.34044 27.63 5.88013C29.1088 4.4195 30.5526 3.75 32.0001 3.75ZM13.8543 16.7627C14.566 16.7703 15.3077 16.8069 16.076 16.8726C16.8683 16.9398 17.7587 17.1277 18.6029 17.2571C17.8808 19.9427 17.3458 22.8761 16.9732 25.9729C13.8927 28.1234 11.1091 30.3722 8.80674 32.6746C8.5846 32.4137 8.2944 32.1463 8.08652 31.8872C6.15584 29.4806 4.85237 27.1597 4.25962 25.1672C3.66686 23.1744 3.75567 21.5818 4.43662 20.3027C5.11757 19.0237 6.38991 18.0592 8.37338 17.4402C9.86099 16.9752 11.7193 16.7399 13.8543 16.7627ZM50.1458 16.7627C52.2817 16.7416 54.1453 16.982 55.6329 17.4463C57.6164 18.0657 58.8826 19.0298 59.5636 20.3088C60.2445 21.5876 60.3394 23.1747 59.7467 25.1672C59.1539 27.16 57.8443 29.4803 55.9137 31.8872C55.7073 32.1445 55.42 32.4094 55.1996 32.6685C52.8974 30.368 50.1066 28.1214 47.0269 25.9729C46.6542 22.8739 46.1201 19.9381 45.3973 17.251C46.2413 17.1216 47.1321 16.9398 47.9242 16.8726C48.6925 16.8069 49.4339 16.7697 50.1458 16.7627ZM42.315 17.8003C42.817 19.6358 43.2287 21.615 43.5663 23.6963C42.1916 22.8487 40.8221 22.0008 39.3426 21.2122C38.2479 20.6286 37.1616 20.1615 36.0711 19.6436C38.2258 18.8899 40.319 18.2522 42.315 17.8003ZM21.6852 17.8064C23.6794 18.2579 25.7702 18.8907 27.9229 19.6436C26.8348 20.1604 25.7498 20.6238 24.6576 21.2061C23.1779 21.9948 21.8086 22.8482 20.4339 23.6963C20.7712 21.6171 21.1838 19.6404 21.6852 17.8064ZM32.0001 21.1633C33.9379 21.9858 35.9056 22.9228 37.8717 23.9709C40.0908 25.154 42.1508 26.4204 44.1095 27.7307C44.3435 30.0714 44.494 32.4893 44.494 35C44.494 37.5105 44.3434 39.9221 44.1095 42.2632C42.1524 43.5724 40.0896 44.8467 37.8717 46.0291C35.9012 47.0795 33.9365 48.0126 31.994 48.8367C30.0557 48.0139 28.0885 47.0772 26.1224 46.0291C23.9047 44.8469 21.8477 43.5784 19.8907 42.2693C19.6564 39.9263 19.5062 37.5127 19.5062 35C19.5062 32.4893 19.6567 30.0714 19.8907 27.7307C21.8494 26.4204 23.9094 25.1479 26.1285 23.9648C28.0946 22.9168 30.0623 21.9858 32.0001 21.1633ZM16.5948 30.0989C16.4931 31.7112 16.3812 33.3226 16.3812 35C16.3812 36.679 16.4929 38.287 16.5948 39.9011C14.4769 38.2892 12.5779 36.6489 10.9369 35C12.5782 33.3512 14.4765 31.711 16.5948 30.0989ZM47.4054 30.0989C49.5223 31.7099 51.4228 33.3462 53.0633 34.9939C51.4221 36.643 49.5237 38.2889 47.4054 39.9011C47.5073 38.287 47.619 36.679 47.619 35C47.619 33.3226 47.5071 31.7112 47.4054 30.0989ZM32.0001 30.3125C29.4303 30.3125 27.3126 32.4303 27.3126 35C27.3126 37.57 29.4303 39.6875 32.0001 39.6875C34.5699 39.6875 36.6876 37.57 36.6876 35C36.6876 32.4303 34.5699 30.3125 32.0001 30.3125ZM32.0001 33.4375C32.8799 33.4375 33.5626 34.1181 33.5626 35C33.5626 35.8822 32.8799 36.5625 32.0001 36.5625C31.1202 36.5625 30.4376 35.8822 30.4376 35C30.4376 34.1181 31.1202 33.4375 32.0001 33.4375ZM8.80063 37.3254C11.1045 39.6289 13.896 41.8762 16.9793 44.0271C17.3519 47.1232 17.8812 50.0578 18.6029 52.7429C17.7575 52.8726 16.8692 53.0601 16.076 53.1274C13.0029 53.3868 10.3569 53.1734 8.37338 52.5537C6.38991 51.9343 5.11754 50.9763 4.43662 49.6973C3.75564 48.4182 3.66686 46.8256 4.25962 44.8328C4.85237 42.8403 6.14977 40.5194 8.08042 38.1128C8.28812 37.8539 8.57866 37.5861 8.80063 37.3254ZM55.1996 37.3254C55.4215 37.5861 55.7121 37.8539 55.9198 38.1128C57.8505 40.5197 59.1478 42.8338 59.7406 44.8267C60.3333 46.8192 60.2445 48.4124 59.5636 49.6912C58.8826 50.9702 57.6103 51.9343 55.6268 52.5537C53.6433 53.1725 50.9974 53.3868 47.9242 53.1274C47.1321 53.0602 46.2415 52.8784 45.3973 52.749C46.1203 50.0604 46.6542 47.1218 47.0269 44.021C50.1079 41.8714 52.8972 39.6273 55.1996 37.3254ZM43.5663 46.2976C43.2286 48.3814 42.8174 50.3621 42.315 52.1997C40.3189 51.7475 38.2261 51.1104 36.0711 50.3564C37.1627 49.838 38.247 49.3719 39.3426 48.7878C40.8223 47.999 42.1917 47.1452 43.5663 46.2976ZM20.4339 46.3037C21.8083 47.1512 23.1781 47.9992 24.6576 48.7878C25.7532 49.3719 26.8375 49.838 27.929 50.3564C25.7761 51.1096 23.6796 51.7416 21.6852 52.1936C21.1839 50.3593 20.7711 48.3833 20.4339 46.3037ZM32.0001 52.1753C35.2217 53.4769 38.3623 54.4871 41.3507 55.1782C41.0678 55.9847 40.8155 56.8578 40.5023 57.5891C39.2873 60.426 37.8491 62.6657 36.3702 64.126C34.8913 65.5866 33.4476 66.25 32.0001 66.25C30.5526 66.25 29.1088 65.5866 27.63 64.126C26.1511 62.6657 24.7129 60.426 23.4979 57.5891C23.184 56.8562 22.9329 55.9806 22.6495 55.1721C25.6378 54.4811 28.7786 53.4768 32.0001 52.1753Z" fill="#6C0740"/>
</svg>