<svg width="64" height="63" viewBox="0 0 64 63" fill="none" xmlns="http://www.w3.org/2000/svg">
<path d="M15.2349 62.6592C14.7131 62.6592 14.2655 62.2653 14.2119 61.7352L13.3828 53.7781H8.62254C7.29841 53.7781 6.16197 52.7489 6.03204 51.433L5.42979 45.2414H2.93004C2.18547 45.2414 1.56879 44.9259 1.23879 44.3731C0.908786 43.8224 0.921161 43.1274 1.27385 42.4715L4.87704 34.4896L4.7471 32.1879C4.74504 28.2444 6.52497 24.4432 9.62904 21.7C10.0539 21.3226 10.7077 21.3618 11.0852 21.7908C11.4626 22.2177 11.4213 22.8695 10.9944 23.2469C8.29254 25.6312 6.80754 28.7868 6.80754 32.1301L6.94985 34.6257C6.96016 34.7907 6.92922 34.9578 6.86116 35.1084L3.21672 43.1727L6.36616 43.1789C6.89829 43.1789 7.34172 43.5811 7.39329 44.1091L8.08629 51.2309C8.11104 51.4846 8.36679 51.7135 8.62254 51.7135H14.3109C14.8389 51.7135 15.2823 52.1116 15.336 52.6375L16.262 61.5207C16.3218 62.0859 15.9093 62.5953 15.3442 62.653C15.3071 62.6572 15.27 62.6592 15.2349 62.6592Z" fill="#6C0740" stroke="#6C0740" stroke-width="0.5"/>
<path d="M25.1163 62.7437C24.5965 62.7437 24.149 62.3519 24.0933 61.8218L22.8661 50.3337H17.2499C15.802 50.3337 14.5604 49.2076 14.4264 47.7721L13.7189 40.5203H10.7035C9.90123 40.5203 9.24123 40.1841 8.88855 39.5984C8.53792 39.0106 8.55442 38.2681 8.93186 37.5606L13.096 28.3392L12.9455 25.6456C12.9434 20.4357 15.6804 15.4816 20.2653 12.3424C20.7335 12.0207 21.377 12.1403 21.6967 12.6106C22.0184 13.0808 21.9009 13.7202 21.4285 14.0419C17.4067 16.7995 15.0059 21.1163 15.0059 25.5878L15.1689 28.4732C15.1792 28.6403 15.1482 28.8053 15.0802 28.9559L10.7943 38.4413L14.6553 38.4578C15.1874 38.4578 15.6309 38.86 15.6824 39.388L16.4806 47.5741C16.5157 47.9474 16.8745 48.2712 17.2499 48.2712H23.7922C24.3202 48.2712 24.7615 48.6672 24.8172 49.1931L26.1434 61.6052C26.2032 62.1704 25.7949 62.6798 25.2277 62.7396C25.1905 62.7417 25.1534 62.7437 25.1163 62.7437Z" fill="#6C0740" stroke="#6C0740" stroke-width="0.5"/>
<path d="M32.8609 47.3967H27.5273C25.9598 47.3967 24.6192 46.1777 24.4707 44.6205L23.6622 36.3025H20.127C19.269 36.3025 18.5637 35.9457 18.1924 35.3228C17.8212 34.702 17.8397 33.912 18.2481 33.1551L22.9671 22.692L22.7959 19.6107C22.7939 9.30022 31.9658 0.959473 43.2415 0.959473C54.3707 0.959473 62.7672 9.74985 62.7672 21.403C62.7672 25.8539 61.6782 30.0923 59.4342 34.3575C59.1702 34.8629 58.5432 35.0526 58.042 34.7907C57.5367 34.5267 57.3428 33.9017 57.6089 33.3985C59.692 29.4344 60.7047 25.5115 60.7047 21.403C60.7047 10.9234 53.1972 3.02197 43.2415 3.02197C33.1043 3.02197 24.8564 10.4387 24.8564 19.555L25.0399 22.8302C25.0502 22.9952 25.0193 23.1602 24.9512 23.3108L20.0961 34.0709C20.0569 34.143 20.0322 34.2008 20.0157 34.24C20.0487 34.242 20.0817 34.242 20.127 34.242H24.5986C25.1307 34.242 25.5741 34.6442 25.6257 35.1743L26.5249 44.4267C26.5703 44.9196 27.0302 45.3342 27.5273 45.3342H32.8609C33.4302 45.3342 33.8922 45.7962 33.8922 46.3654C33.8922 46.9347 33.4302 47.3967 32.8609 47.3967Z" fill="#6C0740" stroke="#6C0740" stroke-width="0.5"/>
<path d="M45.0814 35.9745H41.373C40.8883 35.9745 40.4696 35.6363 40.3665 35.1619L39.756 32.3734C38.9001 32.1238 38.0771 31.7814 37.2934 31.3504L34.8885 32.8911C34.4801 33.153 33.9459 33.0953 33.6036 32.7529L30.9821 30.1314C30.6397 29.7891 30.582 29.2528 30.8439 28.8465L32.3846 26.4416C31.9536 25.6579 31.6112 24.8349 31.3616 23.979L28.5731 23.3685C28.0967 23.2654 27.7605 22.8467 27.7605 22.3599V18.6495C27.7605 18.1648 28.0967 17.7461 28.5711 17.643L31.3575 17.0325C31.6091 16.1745 31.9536 15.3516 32.3826 14.5699L30.8419 12.165C30.5799 11.7587 30.6377 11.2224 30.9801 10.8801L33.6015 8.25862C33.9439 7.91625 34.4781 7.8585 34.8864 8.12044L37.2913 9.66113C38.0771 9.23006 38.9001 8.88769 39.7539 8.63812L40.3644 5.84963C40.4676 5.37731 40.8862 5.03906 41.3709 5.03906H45.0814C45.5661 5.03906 45.9847 5.37525 46.0879 5.84963L46.6984 8.64019C47.5522 8.88769 48.3752 9.23006 49.161 9.66113L51.5659 8.12044C51.9763 7.85644 52.5105 7.91419 52.8529 8.25656L55.4743 10.878C55.8167 11.2204 55.8744 11.7566 55.6125 12.1629L54.0739 14.5719C54.5049 15.3578 54.8473 16.1807 55.0948 17.0325L57.8854 17.643C58.3577 17.7461 58.6959 18.1648 58.6959 18.6495V22.3599C58.6959 22.8446 58.3598 23.2633 57.8854 23.3664L55.0948 23.9769C54.8473 24.8287 54.5049 25.6537 54.0739 26.4375L55.6146 28.8444C55.8765 29.2507 55.8187 29.787 55.4764 30.1294L52.8549 32.7529C52.5105 33.0973 51.9763 33.1489 51.57 32.8911L49.1651 31.3483C48.3814 31.7794 47.5584 32.1197 46.7025 32.3693L46.092 35.1598C45.9868 35.6362 45.5681 35.9745 45.0814 35.9745ZM42.2021 33.912H44.2522L44.8194 31.3174C44.904 30.9296 45.2051 30.6223 45.5908 30.5316C46.6716 30.2799 47.6966 29.853 48.6412 29.2673C48.9754 29.0589 49.4064 29.0589 49.7406 29.2755L51.9784 30.7089L53.4283 29.259L51.9949 27.0212C51.7804 26.6871 51.7783 26.2601 51.9846 25.9239C52.5765 24.9669 53.0014 23.9419 53.2509 22.8714C53.3417 22.4837 53.6469 22.1846 54.0347 22.1001L56.6293 21.5329V19.4807L54.0367 18.9114C53.649 18.8269 53.3438 18.5257 53.253 18.1401C53.0034 17.0676 52.5786 16.0425 51.9866 15.0876C51.7783 14.7514 51.7824 14.3244 51.9969 13.9903L53.4304 11.7525L51.9804 10.3026L49.7426 11.736C49.4085 11.9526 48.9816 11.9526 48.6433 11.7442C47.6946 11.1564 46.6695 10.7316 45.5929 10.4799C45.2051 10.3892 44.9061 10.0839 44.8215 9.69619L44.2543 7.10156H42.2042L41.637 9.69619C41.5524 10.0839 41.2513 10.3892 40.8636 10.4799C39.789 10.7295 38.7639 11.1544 37.8131 11.7442C37.4769 11.9526 37.05 11.9526 36.7138 11.736L34.476 10.3026L33.0261 11.7525L34.4595 13.9903C34.674 14.3244 34.6761 14.7534 34.4677 15.0896C33.882 16.0322 33.4551 17.0593 33.1972 18.1421C33.1065 18.5299 32.8033 18.8269 32.4156 18.9114L29.823 19.4807V21.5308L32.4176 22.098C32.8054 22.1826 33.1106 22.4837 33.2014 22.8694C33.453 23.9481 33.8779 24.9752 34.4657 25.9198C34.6761 26.256 34.674 26.685 34.4574 27.0191L33.024 29.2569L34.4739 30.7069L36.7117 29.2734C37.0479 29.0589 37.479 29.0589 37.8111 29.2652C38.7577 29.853 39.7828 30.2799 40.8615 30.5295C41.2492 30.6202 41.5504 30.9255 41.6349 31.3153L42.2021 33.912ZM43.2251 27.7266C39.2445 27.7266 36.0064 24.4884 36.0064 20.5078C36.0064 16.5272 39.2445 13.2891 43.2251 13.2891C47.2057 13.2891 50.4439 16.5272 50.4439 20.5078C50.4439 24.4884 47.2057 27.7266 43.2251 27.7266ZM43.2251 15.3516C40.3809 15.3516 38.0689 17.6636 38.0689 20.5078C38.0689 23.352 40.3809 25.6641 43.2251 25.6641C46.0693 25.6641 48.3814 23.352 48.3814 20.5078C48.3814 17.6636 46.0693 15.3516 43.2251 15.3516Z" fill="#6C0740" stroke="#6C0740" stroke-width="0.5"/>
<path d="M51.3618 60.739H48.301C47.8163 60.739 47.3976 60.4008 47.2945 59.9264L46.816 57.7298C46.1704 57.5339 45.5434 57.274 44.9474 56.9543L43.0499 58.1671C42.6415 58.4311 42.1073 58.3713 41.7649 58.0289L39.5993 55.8633C39.2569 55.5209 39.1992 54.9846 39.4611 54.5763L40.678 52.6829C40.3563 52.0848 40.0964 51.4578 39.9004 50.8143L37.7059 50.3337C37.2336 50.2306 36.8933 49.8119 36.8933 49.3272V46.2664C36.8933 45.7818 37.2316 45.3631 37.7059 45.2599L39.9004 44.7794C40.0964 44.1338 40.3563 43.5089 40.678 42.9108L39.4611 41.0133C39.1992 40.6069 39.2569 40.0707 39.5993 39.7283L41.7629 37.5648C42.1052 37.2224 42.6394 37.1626 43.0478 37.4266L44.9453 38.6393C45.5414 38.3196 46.1684 38.0577 46.8139 37.8617L47.2924 35.6693C47.3956 35.197 47.8143 34.8567 48.2989 34.8567H51.3597C51.8423 34.8567 52.2631 35.1929 52.3662 35.6673L52.8468 37.8617C53.4923 38.0577 54.1173 38.3176 54.7174 38.6393L56.6108 37.4266C57.0192 37.1667 57.5513 37.2224 57.8958 37.5648L60.0593 39.7283C60.4017 40.0707 60.4594 40.6049 60.1975 41.0133L58.9848 42.9108C59.3044 43.5089 59.5664 44.1359 59.7623 44.7794L61.9568 45.2599C62.4291 45.3631 62.7694 45.7818 62.7694 46.2664V49.3251C62.7694 49.8098 62.4312 50.2285 61.9568 50.3316L59.7603 50.8122C59.5664 51.4578 59.3065 52.0806 58.9848 52.6808L60.1975 54.5763C60.4594 54.9826 60.4017 55.5188 60.0593 55.8612L57.8958 58.0268C57.5513 58.3713 57.0109 58.4228 56.6108 58.165L54.7174 56.9502C54.1173 57.2699 53.4923 57.5298 52.8468 57.7257L52.3662 59.9243C52.2672 60.4028 51.8485 60.739 51.3618 60.739ZM49.1322 58.6765H50.5326L50.9719 56.6738C51.0565 56.2861 51.3597 55.9808 51.7454 55.8901C52.6116 55.6879 53.4387 55.3456 54.208 54.8712C54.5421 54.6608 54.9711 54.6629 55.3053 54.8794L57.0274 55.9829L58.0174 54.9929L56.914 53.2686C56.6995 52.9345 56.6974 52.5076 56.9058 52.1693C57.3822 51.4 57.7246 50.5729 57.9246 49.7108C58.0154 49.3231 58.3186 49.0199 58.7104 48.9353L60.7111 48.4981V47.0956L58.7146 46.6583C58.3268 46.5738 58.0216 46.2726 57.9308 45.8869C57.7246 45.0186 57.3801 44.1916 56.9058 43.4243C56.6954 43.0861 56.6974 42.6591 56.914 42.325L58.0174 40.5987L57.0274 39.6087L55.3053 40.7121C54.9711 40.9266 54.5421 40.9266 54.208 40.7204C53.4366 40.2439 52.6075 39.8995 51.7433 39.6953C51.3556 39.6046 51.0565 39.3014 50.9719 38.9136L50.5326 36.9171H49.1301L48.6949 38.9095C48.6104 39.2973 48.3092 39.6025 47.9236 39.6933C47.0532 39.8995 46.2261 40.2439 45.4609 40.7183C45.1289 40.9266 44.6978 40.9266 44.3616 40.7101L42.6353 39.6066L41.6453 40.5966L42.7529 42.3229C42.9674 42.6571 42.9694 43.084 42.7611 43.4223C42.2868 44.1895 41.9423 45.0166 41.7361 45.8849C41.6453 46.2726 41.3421 46.5717 40.9523 46.6563L38.9558 47.0935V48.496L40.9523 48.9332C41.3401 49.0178 41.6453 49.3189 41.7361 49.7046C41.9423 50.5729 42.2868 51.4 42.7611 52.1673C42.9715 52.5055 42.9694 52.9324 42.7529 53.2686L41.6474 54.9929L42.6353 55.9808L44.3616 54.8774C44.6978 54.6629 45.1289 54.6629 45.4609 54.8691C46.222 55.3414 47.0511 55.6859 47.9215 55.888C48.3093 55.9788 48.6104 56.284 48.6949 56.6738L49.1322 58.6765ZM49.8314 53.9328C46.4468 53.9328 43.6954 51.1814 43.6954 47.7968C43.6954 44.4123 46.4468 41.6609 49.8314 41.6609C53.2159 41.6609 55.9673 44.4123 55.9673 47.7968C55.9673 51.1814 53.2159 53.9328 49.8314 53.9328ZM49.8314 43.7254C47.5853 43.7254 45.7579 45.5528 45.7579 47.7989C45.7579 50.0449 47.5853 51.8723 49.8314 51.8723C52.0774 51.8723 53.9048 50.0449 53.9048 47.7989C53.9048 45.5528 52.0774 43.7254 49.8314 43.7254Z" fill="#6C0740" stroke="#6C0740" stroke-width="0.5"/>
</svg>