<svg width="60" height="60" viewBox="0 0 60 60" fill="none" xmlns="http://www.w3.org/2000/svg">
<path d="M25.75 42.6331C24.251 42.4674 22.8042 42.1287 21.4301 41.6369C21.4763 40.6348 21.5003 39.5897 21.5003 38.5L21.5004 38.1583C21.5006 37.8146 21.5008 37.4501 21.4994 37.0682C22.8207 37.696 24.2492 38.1347 25.75 38.3494V27.875C25.75 24.3542 28.6042 21.5 32.125 21.5H42.5996C41.5681 14.2914 35.3688 8.75 27.875 8.75C25.3862 8.75 23.0401 9.36124 20.9787 10.4418C20.6246 9.01478 20.0836 7.71219 19.3357 6.50757C21.906 5.22284 24.8061 4.5 27.875 4.5C37.7192 4.5 45.8262 11.9376 46.8831 21.5H53.375C56.8957 21.5 59.75 24.3542 59.75 27.875V49.125C59.75 52.6457 56.8957 55.5 53.375 55.5H32.125C28.6042 55.5 25.75 52.6457 25.75 49.125V42.6331ZM46.8831 25.75C45.9035 34.6147 38.8647 41.6535 30 42.6331V49.125C30 50.2984 30.9514 51.25 32.125 51.25H53.375C54.5484 51.25 55.5 50.2984 55.5 49.125V27.875C55.5 26.7014 54.5484 25.75 53.375 25.75H46.8831ZM42.5996 25.75H32.125C30.9514 25.75 30 26.7014 30 27.875V38.3494C36.5146 37.4175 41.6675 32.2646 42.5996 25.75ZM16.3786 28.1346C15.9326 26.4955 15.2095 24.8494 13.9703 23.5903C15.9734 21.6831 17.25 18.6604 17.25 15.125C17.25 12.1613 16.6498 10.1282 15.565 8.50095C15.0455 7.7218 14.4589 7.10287 13.9125 6.57472C13.6234 6.29529 13.3981 6.08755 13.187 5.8929C12.9267 5.65286 12.6879 5.43271 12.3776 5.12241C11.7397 4.48449 11.6719 3.97436 11.6719 3.70313C11.6719 3.53891 11.6996 3.40554 11.7229 3.32403C11.7308 3.29636 11.7376 3.27698 11.7412 3.26708C12.1347 2.41691 11.925 1.40532 11.2188 0.78193C10.4965 0.144273 9.43549 0.0724269 8.63377 0.606915L8.62629 0.611888L8.61422 0.620048L8.57644 0.645718L8.44979 0.733693C8.34379 0.808238 8.19585 0.914445 8.01548 1.04947C7.65563 1.31879 7.16144 1.70669 6.61103 2.1903C5.54304 3.1287 4.16035 4.51645 3.17669 6.17484C2.35503 7.44823 1.6415 9.03118 1.13014 10.5614C0.62116 12.0844 0.250008 13.7409 0.250008 15.125C0.250008 18.6604 1.52658 21.6831 3.52978 23.5903C2.29048 24.8494 1.56742 26.4955 1.12143 28.1346C0.249455 31.3394 0.249774 35.29 0.250008 38.3484V38.5C0.250008 47.2473 1.88796 52.4434 3.74036 55.5306C4.66907 57.0784 5.63977 58.0751 6.44931 58.7049C6.85187 59.0177 7.20811 59.2353 7.4901 59.3828C7.63086 59.4567 7.75262 59.5129 7.85186 59.5545C7.85186 59.5545 8.39105 59.75 8.75001 59.75C9.10896 59.75 9.6482 59.5545 9.6482 59.5545C9.7474 59.5129 9.86916 59.4567 10.01 59.3828C10.292 59.2353 10.6481 59.0177 11.0507 58.7049C11.8602 58.0751 12.831 57.0784 13.7597 55.5306C15.6121 52.4434 17.25 47.2473 17.25 38.5L17.2501 38.3484C17.2503 35.29 17.2506 31.3393 16.3786 28.1346ZM6.57065 26.5595C7.04644 26.0814 7.6898 25.75 8.75001 25.75C9.81026 25.75 10.4536 26.0814 10.9294 26.5595C11.4656 27.0983 11.9302 27.9732 12.2777 29.2504C12.985 31.8499 13 35.2586 13 38.5C13 46.7527 11.4505 51.1191 10.1154 53.3444C9.60651 54.1923 9.12222 54.7414 8.75001 55.0865C8.37779 54.7414 7.89355 54.1923 7.3847 53.3444C6.0496 51.1191 4.50001 46.7527 4.50001 38.5C4.50001 35.2586 4.51505 31.8499 5.22234 29.2504C5.56986 27.9732 6.03443 27.0983 6.57065 26.5595ZM8.75001 21.5C7.11495 21.5 4.50001 19.6825 4.50001 15.125C4.50001 14.3886 4.72139 13.2238 5.16101 11.9085C5.59277 10.6165 6.17408 9.36107 6.76556 8.45169C6.78311 8.42471 6.80007 8.39729 6.81639 8.3695C7.18503 7.74194 7.66791 7.13351 8.18484 6.5763C8.47622 7.09718 8.86463 7.61984 9.37242 8.12763C9.6848 8.44001 10.0885 8.81579 10.4331 9.13649C10.6407 9.32974 10.8268 9.50297 10.9586 9.63039C11.4083 10.0651 11.7514 10.4423 12.0288 10.8584C12.5377 11.6219 13 12.7762 13 15.125C13 19.6825 10.3851 21.5 8.75001 21.5Z" fill="#6C0740"/>
</svg>