<svg width="47" height="57" viewBox="0 0 47 57" fill="none" xmlns="http://www.w3.org/2000/svg">
<path d="M7.23075 1.22526e-06C3.39371 1.22526e-06 0.257005 2.99775 0.0424148 6.7284C0.0132723 6.85862 -0.00093846 6.99165 4.80363e-05 7.125V55.2188C9.59701e-05 55.6912 0.190564 56.1442 0.529559 56.4782C0.868553 56.8123 1.32831 57 1.80772 57H45.1919C45.6713 57 46.1311 56.8123 46.4701 56.4782C46.8091 56.1442 46.9996 55.6912 46.9996 55.2188V12.6775C47.0024 12.5467 46.9905 12.4161 46.9643 12.2878C46.9294 11.95 46.7971 11.629 46.5832 11.3627C46.3693 11.0964 46.0825 10.896 45.7568 10.7849C45.7568 10.7849 43.356 10.2315 43.356 7.125C43.356 4.01886 45.7568 3.47205 45.7568 3.47205C46.1645 3.33861 46.5107 3.06645 46.7333 2.70435C46.9559 2.34224 47.0403 1.91387 46.9715 1.49599C46.9026 1.07812 46.685 0.698056 46.3576 0.423923C46.0303 0.14979 45.6145 -0.000495065 45.1849 1.22526e-06H7.23075ZM7.23075 3.5625H41.3294C40.6291 4.59634 39.7407 5.43673 39.7407 7.125C39.7407 8.81184 40.6303 9.65438 41.3294 10.6875H7.23075C5.19655 10.6875 3.6154 9.12962 3.6154 7.125C3.6154 5.12074 5.19655 3.5625 7.23075 3.5625ZM3.6154 13.248C4.68519 13.8661 5.9085 14.25 7.23075 14.25H43.3843V53.4375H3.6154V13.248ZM19.7362 24.9375C17.7609 24.9375 16.1208 26.5538 16.1208 28.5C16.1208 28.8491 16.2278 29.1681 16.3256 29.488L9.92108 35.7989C9.63126 35.7241 9.35006 35.625 9.03842 35.625C7.06313 35.625 5.42307 37.2413 5.42307 39.1875C5.42307 41.134 7.06313 42.75 9.03842 42.75C11.0137 42.75 12.6538 41.134 12.6538 39.1875C12.6538 38.8811 12.5456 38.6086 12.4702 38.3247L18.9806 31.9094C19.232 31.9664 19.4694 32.0625 19.7362 32.0625C20.0901 32.0625 20.414 31.9569 20.7389 31.8607L29.4524 40.4469C29.6547 40.6466 29.9023 40.7961 30.1747 40.883C30.4471 40.97 30.7365 40.992 31.0192 40.9471C31.3019 40.9023 31.5698 40.7919 31.8007 40.6251C32.0316 40.4583 32.2191 40.2398 32.3475 39.9877L36.3936 32.0138C38.2543 31.8855 39.7689 30.3628 39.7689 28.5C39.7689 26.5538 38.1288 24.9375 36.1535 24.9375C34.1783 24.9375 32.5382 26.5538 32.5382 28.5C32.5382 29.2064 32.811 29.8277 33.1808 30.3856L30.2362 36.1816L23.1962 29.2445C23.2528 28.9951 23.3515 28.7629 23.3515 28.5C23.3515 26.5538 21.7115 24.9375 19.7362 24.9375Z" fill="#6C0740"/>
</svg>